PathFileType	4	(X/Y/Z)	2_1_17_p1_0-252_filt_butterworth.trc
DataRate	CameraRate	NumFrames	NumMarkers	Units	OrigDataRate	OrigDataStartFrame	OrigNumFrames
60.0	60.0	4	27	m	60.0	0	252
Frame#	Time	RHip			RKnee			RAnkle			RBigToe			RSmallToe			RHeel			LHip			LKnee			LAnkle			LBigToe			LSmallToe			LHeel			Neck			Head			Nose			RShoulder			RElbow			RWrist			RThumb			RIndex			RPinky			LShoulder			LElbow			LWrist			LThumb			LIndex			LPinky			
		X1	Y1	Z1	X2	Y2	Z2	X3	Y3	Z3	X4	Y4	Z4	X5	Y5	Z5	X6	Y6	Z6	X7	Y7	Z7	X8	Y8	Z8	X9	Y9	Z9	X10	Y10	Z10	X11	Y11	Z11	X12	Y12	Z12	X13	Y13	Z13	X14	Y14	Z14	X15	Y15	Z15	X16	Y16	Z16	X17	Y17	Z17	X18	Y18	Z18	X19	Y19	Z19	X20	Y20	Z20	X21	Y21	Z21	X22	Y22	Z22	X23	Y23	Z23	X24	Y24	Z24	X25	Y25	Z25	X26	Y26	Z26	X27	Y27	Z27	
0	0.0	0.33818398960428014	0.7941788784761172	0.7175066754882202	0.3475479627822742	0.2944573191421799	0.7748375669206841	0.34258982353604234	-0.12532910416408016	0.8273851032548408	0.3254563107483002	-0.14424272231915	0.6322015217730953	0.40277409551764337	-0.16224523749074682	0.6676838634279794	0.30452856762084646	-0.22301350194563305	0.916353143440471	0.10596345307840724	0.8017914357095763	0.7090160667112021	0.10684491737116139	0.32009362228078664	0.753305518797243	0.10021385387644935	-0.10773609818218528	0.8132423546276625	0.1070267614370266	-0.18692260055532922	0.6893282517586505	0.04224716798083866	-0.1538447342593307	0.6916296470844385	0.1249429161954915	-0.2011888939015147	0.8965766360057048	0.2422366009576474	1.4999647156292135	0.667231390267552	0.24464594473698376	1.7585160304762002	0.6034475338877474	0.25750497128053307	1.6222339777749146	0.5383769184649149	0.40305078897410934	1.4052134184330825	0.7231095469769486	0.5039370150780192	1.1015130322368933	0.7435034404503806	0.3463641531529212	0.9546058440987729	0.5692835285600961	0.22923928903313082	0.9741871192058689	0.5335334745763921	0.21001838898114975	0.9222226208934878	0.5287204673359194	0.2226161697201654	0.8742613758048786	0.5539642377025027	0.07999993861983602	1.4089730593854903	0.7034131952224738	-0.019798490404566618	1.1272295042568365	0.7140863187827072	0.12457042635518124	0.9907073418167031	0.5351677498808647	0.21244896456672366	0.9734288058356432	0.5271124359949946	0.2287389575412382	0.9375857201776353	0.5058451639134043	0.2283789066330544	0.888484029528341	0.5310183740141905	
1	0.0166666666666666	0.3381761527223757	0.7940261965170922	0.7169180558991967	0.34738323621315537	0.2955089257168925	0.7753489165700691	0.34265895887686165	-0.1256752170094282	0.8274606844554673	0.3251607975934125	-0.14356570608757763	0.631159748118138	0.4031522820118422	-0.16157187213055116	0.6667412034705533	0.3045258428254347	-0.22432706084617116	0.9167531439099053	0.1059240275543937	0.8013001524780283	0.7089104039557376	0.10688664794932153	0.31967182334386907	0.7532891900720692	0.09998842298763444	-0.10749223822537787	0.8131173106868845	0.1070545670447733	-0.18686177976810142	0.6894174270024699	0.04112973422615288	-0.15463264746882063	0.6941402825558286	0.12378345665091532	-0.20106323275252183	0.899472789041157	0.24223994358547668	1.4999458373857393	0.6671900170785519	0.24465008822181086	1.7586700132348931	0.6033875304678917	0.2575025974673856	1.6222114709116833	0.5383477861172231	0.40293593573542136	1.4074691947516207	0.7222396830400661	0.5039622227013909	1.1014387039593097	0.7435788417553524	0.34629748984311304	0.9546801306612024	0.5692728552545552	0.22653511747325	0.9717976345035625	0.5321545773238754	0.20976765094423927	0.9222562492636344	0.5287196538807483	0.22188401001095887	0.8755639374623012	0.5502957021672713	0.08002266157296994	1.4090044142039995	0.7033844344755188	-0.019790794467064915	1.1287864621967354	0.7135998263452612	0.1272596351803643	0.9919903296992278	0.5296181695214115	0.21638196689490713	0.9727578959058957	0.5276425022763997	0.22873926650516815	0.9374041143519871	0.5059410727909452	0.22830996411815593	0.8883909522899325	0.5312246652781912	
2	0.0333333333333333	0.3381674700713007	0.7938922693485737	0.7164375970867677	0.34725190925449856	0.2963338466036322	0.775757445890053	0.3427233064285239	-0.12601847534472305	0.8275504105732325	0.3250570977371775	-0.14341921447953374	0.6310776564985686	0.4033583043393308	-0.16122871692065463	0.6662810717619202	0.30454986088340397	-0.22536935740613623	0.9171112155175383	0.10588409788972247	0.8008362007453027	0.7088269046246813	0.10693139357402076	0.3192342544060909	0.7532527369645879	0.0997659904371791	-0.10736623523548172	0.8130198527464155	0.10707748198974501	-0.1868196828027029	0.6894566039500296	0.040781650123898866	-0.15478262193672607	0.6948422162116376	0.12280561782528039	-0.20107794876391197	0.9018977743557385	0.24223564795359087	1.4999381647282397	0.6671726837944074	0.24465410467151863	1.758746929912323	0.6033679985339336	0.25750200218609476	1.6221934405789382	0.5383263841575983	0.4028708184443459	1.4087545249695375	0.7218592873079418	0.5039450039534918	1.1016618597213217	0.7435476497506155	0.34625693332752944	0.9547179702041354	0.5692718437935207	0.22506439037144252	0.9704654503633399	0.5314336939312787	0.2096334750064352	0.9223561713501469	0.528713361052225	0.2213497583006339	0.8763211598637173	0.5474923661262147	0.08003702329269864	1.4090240449226032	0.7033654770946787	-0.01978731165818672	1.129895017394199	0.713222236471835	0.12895676810289608	0.9928300471574668	0.5260513413422643	0.21862488021970644	0.9726816152026835	0.5269052431678987	0.22873904537666917	0.9373244028436817	0.506013663049306	0.22826670090613244	0.8883434033314634	0.5313325718319365	
3	0.05	0.3381581210988176	0.7937764193313221	0.7160564069493729	0.34715129451373905	0.29695112080144426	0.7760715846246311	0.3427831553369338	-0.12635794116836224	0.8276524186528951	0.3251022288989442	-0.1436681226664631	0.6316751227651631	0.40338151606059913	-0.16123722378015617	0.6663373825280469	0.3045973083020386	-0.2261629497764239	0.9174291979125083	0.10584415506526083	0.8004011352870227	0.7087634522175021	0.10697859819665909	0.3187850225448195	0.7531982721751846	0.09954695473286732	-0.10734541273507288	0.8129467819849827	0.10709571805674258	-0.18679393009793682	0.6894577614662591	0.04100961590525717	-0.15446108901318806	0.6941938321885074	0.12199765720186731	-0.20121530792650427	0.9038831093009376	0.24222601443256234	1.499938301932797	0.6671743010371118	0.24465796700690548	1.7587658438831817	0.6033785622038697	0.25750259696671673	1.622179864310645	0.5383115469867598	0.40284456692336285	1.4092561579124228	0.7218589157225459	0.5038989605152876	1.1020792718179169	0.7434429796579677	0.34623846608585823	0.9547267162525229	0.5692760153573685	0.2245593836652481	0.9699589478150948	0.5312252103636073	0.20959266798637557	0.9224942845201071	0.5287033337443242	0.2209813354294668	0.8766786812350653	0.5454558088039834	0.08004438886092372	1.409034067351284	0.7033551010337284	-0.019790471570942318	1.130592121834477	0.7129424541209529	0.12985523893237336	0.993308109817536	0.524090927999957	0.21952853181730136	0.9730482544797798	0.5252500102294604	0.22873966547025004	0.9373237549417497	0.5060645292903967	0.228244329325582	0.8883309317711163	0.5313628652532596	
